<?xml version="1.0" encoding="UTF-8"?>
<svg id="Layer_2" data-name="Layer 2" xmlns="http://www.w3.org/2000/svg" viewBox="0 0 340.91 152.06">
  <defs>
    
  </defs>
  <g id="Layer_1-2" data-name="Layer 1">
    <g>
      <g>
        <g>
          <path class="cls-6" d="M92.13,62.7c1.8-2.91,2.72-6.27,2.72-9.99s-.91-7.08-2.72-9.99c-1.65-2.66-3.92-4.77-6.73-6.31,1.57-1.23,2.58-3.13,2.58-5.28v-3.8c0-1.98-.86-3.76-2.22-4.98,.15-.56,.23-1.15,.23-1.75v-3.74c0-.64-.09-1.25-.25-1.83,1.09-1.19,1.75-2.78,1.75-4.52v-3.8c0-3.7-3-6.7-6.7-6.7h-17.83c-.98,0-1.92,.22-2.76,.6-.84-.38-1.77-.6-2.76-.6h-4.54c-2.91,0-5.39,1.86-6.32,4.46-.92-2.6-3.4-4.46-6.32-4.46h-4.54c-.41,0-.8,.04-1.19,.11-.39-.07-.78-.11-1.19-.11H12.62c-3.7,0-6.7,3-6.7,6.7v3.84c0,3.7,3,6.7,6.7,6.7h1.39v13.89c0,1.09,.26,2.11,.73,3.02-1.34,.38-2.64,.89-3.86,1.53-3.17,1.66-5.69,4.01-7.49,7-1.8,2.98-2.71,6.35-2.71,10.02s.91,7.04,2.71,10.02c1.56,2.59,3.66,4.71,6.24,6.31-1.55,1.23-2.54,3.12-2.54,5.25v24.43c0,3.7,3,6.7,6.7,6.7H31.1c.44,0,.86-.04,1.27-.12,.41,.08,.84,.12,1.27,.12h4.54c.99,0,1.93-.22,2.77-.61,.85,.39,1.78,.61,2.77,.61h4.54c3.7,0,6.7-3,6.7-6.7v-2.65h3.24v2.65c0,3.7,3,6.7,6.7,6.7h18.32c3.7,0,6.7-3,6.7-6.7v-3.8c0-1.98-.86-3.76-2.22-4.98,.15-.56,.23-1.15,.23-1.75v-3.74c0-.64-.09-1.25-.25-1.83,1.09-1.19,1.75-2.78,1.75-4.52v-3.8c0-2.44-1.31-4.57-3.26-5.74,2.45-1.49,4.44-3.44,5.93-5.84ZM30.52,35.36s-.03-.02-.05-.03c0,0,.01-.01,.02-.02,.01,.02,.02,.03,.04,.05Z"></path>
          <path class="cls-5" d="M20.71,10.54H12.62v-3.84h20.73v3.84h-8.1V31.14h-4.54V10.54Z"></path>
          <path class="cls-5" d="M57.43,6.7V31.14h-4.54v-10.47h-12.63v10.47h-4.54V6.7h4.54v10.09h12.63V6.7h4.54Z"></path>
          <path class="cls-5" d="M81.27,27.33v3.8h-18.32V6.7h17.83v3.8h-13.3v6.35h11.8v3.74h-11.8v6.74h13.79Z"></path>
          <path class="cls-7" d="M25.01,52.19h6.11v10.12c-1.4,1-3,1.77-4.82,2.3-1.81,.53-3.63,.8-5.44,.8-2.56,0-4.86-.54-6.91-1.62-2.05-1.08-3.65-2.59-4.82-4.52-1.16-1.93-1.75-4.12-1.75-6.56s.58-4.63,1.75-6.56c1.16-1.93,2.78-3.44,4.85-4.52,2.07-1.08,4.41-1.62,7.02-1.62,2.28,0,4.33,.38,6.14,1.15,1.82,.77,3.33,1.87,4.54,3.32l-4.4,3.98c-1.65-1.81-3.63-2.72-5.93-2.72-2.09,0-3.78,.63-5.06,1.9-1.28,1.27-1.92,2.96-1.92,5.08,0,1.35,.29,2.55,.87,3.61,.58,1.06,1.4,1.88,2.44,2.48,1.05,.59,2.25,.89,3.59,.89s2.57-.27,3.73-.8v-6.7Z"></path>
          <path class="cls-7" d="M39.82,63.77c-2.06-1.09-3.68-2.61-4.85-4.54-1.18-1.93-1.76-4.11-1.76-6.53s.59-4.59,1.76-6.53c1.17-1.93,2.79-3.44,4.85-4.54,2.06-1.09,4.38-1.64,6.96-1.64s4.9,.55,6.96,1.64c2.06,1.09,3.68,2.61,4.85,4.54,1.17,1.93,1.76,4.11,1.76,6.53s-.59,4.6-1.76,6.53c-1.18,1.93-2.79,3.44-4.85,4.54-2.06,1.09-4.38,1.64-6.96,1.64s-4.9-.55-6.96-1.64Zm10.31-4.96c1-.58,1.79-1.4,2.37-2.46,.58-1.06,.87-2.27,.87-3.65s-.29-2.59-.87-3.65c-.58-1.06-1.37-1.88-2.37-2.46-1-.58-2.12-.87-3.35-.87s-2.35,.29-3.35,.87c-1,.58-1.79,1.4-2.37,2.46-.58,1.06-.87,2.27-.87,3.65s.29,2.59,.87,3.65c.58,1.06,1.37,1.88,2.37,2.46,1,.58,2.12,.87,3.35,.87s2.35-.29,3.35-.87Z"></path>
          <path class="cls-7" d="M62.95,40.49h11.55c2.68,0,5.05,.5,7.12,1.5,2.07,1,3.68,2.42,4.82,4.26,1.14,1.84,1.71,3.99,1.71,6.46s-.57,4.62-1.71,6.46c-1.14,1.84-2.75,3.26-4.82,4.26-2.07,1-4.44,1.5-7.12,1.5h-11.55v-24.43Zm11.27,18.92c2.09,0,3.77-.59,5.04-1.78,1.27-1.19,1.9-2.83,1.9-4.92s-.63-3.73-1.9-4.92c-1.27-1.19-2.95-1.78-5.04-1.78h-4.36v13.4h4.36Z"></path>
          <path class="cls-4" d="M13.79,74.28h4.54v20.59h12.77v3.84H13.79v-24.43Z"></path>
          <path class="cls-4" d="M33.65,74.28h4.54v24.43h-4.54v-24.43Z"></path>
          <path class="cls-4" d="M48.27,78.09v7.43h11.8v3.84h-11.8v9.35h-4.54v-24.43h17.83v3.8h-13.3Z"></path>
          <path class="cls-4" d="M83.24,94.91v3.8h-18.32v-24.43h17.83v3.8h-13.3v6.35h11.8v3.74h-11.8v6.74h13.79Z"></path>
        </g>
        <g>
          <g>
            <path class="cls-4" d="M54.84,133.44c-3.48,0-6.31,2.82-6.31,6.31s2.82,6.31,6.31,6.31,6.31-2.82,6.31-6.31-2.82-6.31-6.31-6.31Zm0,10.4c-2.26,0-4.09-1.83-4.09-4.1s1.83-4.09,4.09-4.09,4.1,1.83,4.1,4.09-1.83,4.1-4.1,4.1Z"></path>
            <path class="cls-4" d="M62.87,133.19c0,.81-.66,1.47-1.47,1.47s-1.47-.66-1.47-1.47,.66-1.47,1.47-1.47,1.47,.66,1.47,1.47Z"></path>
            <path class="cls-4" d="M67.05,134.68c-.06-1.31-.27-2.2-.57-2.98-.31-.81-.73-1.49-1.42-2.17-.68-.69-1.37-1.1-2.18-1.42-.78-.3-1.67-.51-2.98-.57-1.31-.06-1.73-.08-5.07-.08s-3.75,.01-5.06,.08c-1.31,.06-2.2,.27-2.98,.57-.81,.32-1.49,.73-2.17,1.42-.69,.68-1.1,1.37-1.42,2.17-.3,.78-.51,1.68-.57,2.98-.06,1.31-.08,1.73-.08,5.06s.01,3.75,.08,5.07c.06,1.31,.27,2.2,.57,2.98,.32,.81,.73,1.49,1.42,2.18,.68,.68,1.37,1.1,2.17,1.42,.78,.3,1.68,.51,2.98,.57,1.31,.06,1.73,.07,5.06,.07s3.75-.01,5.07-.07c1.31-.06,2.2-.27,2.98-.57,.81-.31,1.49-.73,2.18-1.42,.68-.68,1.1-1.37,1.42-2.18,.3-.78,.51-1.67,.57-2.98,.06-1.31,.07-1.73,.07-5.07s-.01-3.75-.07-5.06Zm-2.21,10.03c-.05,1.2-.25,1.85-.42,2.28-.22,.57-.49,.98-.92,1.41-.43,.43-.84,.7-1.41,.92-.43,.17-1.08,.37-2.28,.42-1.29,.06-1.69,.07-4.97,.07s-3.67-.01-4.96-.07c-1.2-.05-1.85-.25-2.28-.42-.58-.22-.98-.49-1.41-.92-.43-.43-.7-.84-.92-1.41-.17-.43-.37-1.08-.42-2.28-.06-1.29-.07-1.69-.07-4.97s.01-3.67,.07-4.96c.05-1.2,.25-1.85,.42-2.28,.22-.58,.49-.98,.92-1.41s.84-.7,1.41-.92c.43-.17,1.08-.37,2.28-.42,1.29-.06,1.68-.07,4.96-.07s3.67,.01,4.97,.07c1.2,.05,1.85,.25,2.28,.42,.57,.22,.98,.49,1.41,.92,.43,.43,.7,.84,.92,1.41,.17,.43,.37,1.08,.42,2.28,.06,1.29,.07,1.68,.07,4.96s-.01,3.67-.07,4.97Z"></path>
            <g>
              <path class="cls-4" d="M67.05,134.68c-.06-1.31-.27-2.2-.57-2.98-.31-.81-.73-1.49-1.42-2.17-.68-.69-1.37-1.1-2.18-1.42-.78-.3-1.67-.51-2.98-.57-1.31-.06-1.73-.08-5.07-.08s-3.75,.01-5.06,.08c-1.31,.06-2.2,.27-2.98,.57-.81,.32-1.49,.73-2.17,1.42-.69,.68-1.1,1.37-1.42,2.17-.3,.78-.51,1.68-.57,2.98-.06,1.31-.08,1.73-.08,5.06s.01,3.75,.08,5.07c.06,1.31,.27,2.2,.57,2.98,.32,.81,.73,1.49,1.42,2.18,.68,.68,1.37,1.1,2.17,1.42,.78,.3,1.68,.51,2.98,.57,1.31,.06,1.73,.07,5.06,.07s3.75-.01,5.07-.07c1.31-.06,2.2-.27,2.98-.57,.81-.31,1.49-.73,2.18-1.42,.68-.68,1.1-1.37,1.42-2.18,.3-.78,.51-1.67,.57-2.98,.06-1.31,.07-1.73,.07-5.07s-.01-3.75-.07-5.06Zm-2.21,10.03c-.05,1.2-.25,1.85-.42,2.28-.22,.57-.49,.98-.92,1.41-.43,.43-.84,.7-1.41,.92-.43,.17-1.08,.37-2.28,.42-1.29,.06-1.69,.07-4.97,.07s-3.67-.01-4.96-.07c-1.2-.05-1.85-.25-2.28-.42-.58-.22-.98-.49-1.41-.92-.43-.43-.7-.84-.92-1.41-.17-.43-.37-1.08-.42-2.28-.06-1.29-.07-1.69-.07-4.97s.01-3.67,.07-4.96c.05-1.2,.25-1.85,.42-2.28,.22-.58,.49-.98,.92-1.41s.84-.7,1.41-.92c.43-.17,1.08-.37,2.28-.42,1.29-.06,1.68-.07,4.96-.07s3.67,.01,4.97,.07c1.2,.05,1.85,.25,2.28,.42,.57,.22,.98,.49,1.41,.92,.43,.43,.7,.84,.92,1.41,.17,.43,.37,1.08,.42,2.28,.06,1.29,.07,1.68,.07,4.96s-.01,3.67-.07,4.97Z"></path>
              <path class="cls-4" d="M54.84,133.44c-3.48,0-6.31,2.82-6.31,6.31s2.82,6.31,6.31,6.31,6.31-2.82,6.31-6.31-2.82-6.31-6.31-6.31Zm0,10.4c-2.26,0-4.09-1.83-4.09-4.1s1.83-4.09,4.09-4.09,4.1,1.83,4.1,4.09-1.83,4.1-4.1,4.1Z"></path>
              <path class="cls-4" d="M62.87,133.19c0,.81-.66,1.47-1.47,1.47s-1.47-.66-1.47-1.47,.66-1.47,1.47-1.47,1.47,.66,1.47,1.47Z"></path>
            </g>
          </g>
          <g>
            <path class="cls-4" d="M95.53,137.32c0,.22-.03,.23-.25,.23-.71,0-1.41-.09-2.11-.25-1.19-.27-2.29-.76-3.31-1.43-.05-.04-.11-.11-.16-.08-.07,.03-.03,.13-.03,.19,0,2.74,0,5.48,0,8.22-.01,1.92-.62,3.63-1.88,5.09-1.33,1.55-3.02,2.45-5.06,2.7-1.57,.19-3.05-.09-4.46-.79-.23-.11-.45-.24-.65-.4-.07-.06-.13-.11-.19-.17-.15-.07-.28-.18-.4-.28-1.26-1-2.15-2.26-2.64-3.79-.17-.53-.27-1.08-.33-1.64-.04-.4-.04-.81-.02-1.21,.06-.93,.28-1.82,.67-2.67,.4-.89,.95-1.68,1.64-2.36,.81-.8,1.75-1.39,2.82-1.77,.67-.24,1.36-.39,2.07-.44,.52-.04,1.03-.03,1.54,.03,.07,0,.11,.02,.11,.1,0,.28,0,.57,0,.85,0,0,.04,2.16,.04,3.15,0,.03,0,.07,0,.1,0,.1-.06,.13-.15,.1-.27-.08-.55-.11-.83-.13-.43-.02-.86,.04-1.27,.19-1.36,.5-2.18,1.47-2.35,2.91-.17,1.41,.39,2.54,1.56,3.36,.1,.07,.2,.13,.29,.21,.02,.02,.05,.04,.07,.06,.27,.11,.55,.22,.84,.27,.92,.18,1.79,.04,2.59-.45,.92-.57,1.47-1.4,1.66-2.47,.04-.2,.04-.41,.04-.61v-16.52c0-.26-.03-.23,.22-.23h3.9c.13,0,.13,0,.13,.13,0,.29,.12,.99,.13,1.04,.55,2.78,3.79,4.49,4.79,4.64,.27,.04,.55,.07,.83,.07,.12,0,.12,0,.12,.12,0,.26,.05,2.92,.05,3.89Z"></path>
            <path class="cls-4" d="M95.53,137.32c0,.22-.03,.23-.25,.23-.71,0-1.41-.09-2.11-.25-1.19-.27-2.29-.76-3.31-1.43-.05-.04-.11-.11-.16-.08-.07,.03-.03,.13-.03,.19,0,2.74,0,5.48,0,8.22-.01,1.92-.62,3.63-1.88,5.09-1.33,1.55-3.02,2.45-5.06,2.7-1.57,.19-3.05-.09-4.46-.79-.23-.11-.45-.24-.65-.4-.07-.06-.13-.11-.19-.17-.15-.07-.28-.18-.4-.28-1.26-1-2.15-2.26-2.64-3.79-.17-.53-.27-1.08-.33-1.64-.04-.4-.04-.81-.02-1.21,.06-.93,.28-1.82,.67-2.67,.4-.89,.95-1.68,1.64-2.36,.81-.8,1.75-1.39,2.82-1.77,.67-.24,1.36-.39,2.07-.44,.52-.04,1.03-.03,1.54,.03,.07,0,.11,.02,.11,.1,0,.28,0,.57,0,.85,0,0,.04,2.16,.04,3.15,0,.03,0,.07,0,.1,0,.1-.06,.13-.15,.1-.27-.08-.55-.11-.83-.13-.43-.02-.86,.04-1.27,.19-1.36,.5-2.18,1.47-2.35,2.91-.17,1.41,.39,2.54,1.56,3.36,.1,.07,.2,.13,.29,.21,.02,.02,.05,.04,.07,.06,.27,.11,.55,.22,.84,.27,.92,.18,1.79,.04,2.59-.45,.92-.57,1.47-1.4,1.66-2.47,.04-.2,.04-.41,.04-.61v-16.52c0-.26-.03-.23,.22-.23h3.9c.13,0,.13,0,.13,.13,0,.29,.12,.99,.13,1.04,.55,2.78,3.79,4.49,4.79,4.64,.27,.04,.55,.07,.83,.07,.12,0,.12,0,.12,.12,0,.26,.05,2.92,.05,3.89Z"></path>
          </g>
          <path class="cls-4" d="M33.76,131.44c-.4-1.48-1.56-2.65-3.05-3.05-2.69-.72-13.47-.72-13.47-.72,0,0-10.78,0-13.47,.72-1.48,.4-2.65,1.56-3.05,3.05-.72,2.69-.72,8.3-.72,8.3,0,0,0,5.61,.72,8.3,.4,1.48,1.56,2.65,3.05,3.05,2.69,.72,13.47,.72,13.47,.72,0,0,10.78,0,13.47-.72,1.48-.4,2.65-1.57,3.05-3.05,.72-2.69,.72-8.3,.72-8.3,0,0,0-5.61-.72-8.3Zm-19.97,13.47v-10.34l8.96,5.17-8.96,5.17Z"></path>
        </g>
      </g>
      <g>
        <text class="cls-10" transform="translate(128.64 70.83)"><tspan class="cls-8" x="0" y="0">F</tspan><tspan class="cls-9" x="13.98" y="0" xml:space="preserve">ocus   </tspan><tspan class="cls-1" x="92.19" y="0">Scriptu</tspan><tspan class="cls-3" x="184.79" y="0">r</tspan><tspan class="cls-2" x="196.67" y="0">e</tspan></text>
        <g>
          <path class="cls-12" d="M244.09,41.64c147.75-14.23,112.86,66.94-19.85,34.46"></path>
          <path class="cls-11" d="M213.77,73.13c-13.12-4.93-13.04-13.14-8.7-18.65,9.78-12.4,43.75-10.52,68.2-7.41"></path>
        </g>
      </g>
    </g>
  </g>
</svg>