<?xml version="1.0" encoding="UTF-8"?>
<svg xmlns="http://www.w3.org/2000/svg" viewBox="0 0 796.58 146.64">
  <defs>
    
  </defs>
  <g class="cls-2">
    <g id="Layer_2" data-name="Layer 2">
      <g id="Layer_1-2" data-name="Layer 1">
        <path class="cls-1" d="M791.52,78.36c-16.71,.3-33.43,.59-50.14,.89,1.36-6.69,1.25-17.23-.25-23.98,5.38-.1,10.76-.19,16.14-.29,3.13-.06,6.57,.25,9.68-.17,.4-.06,.85-.01,1.26-.02,6.39-.11,5.94-36.8-.49-36.68-3.91,.07-7.83,.14-11.74,.21-.11-9.19-1.83-18.37-5.06-18.31-24.42,.43-48.84,.86-73.26,1.29-58.24,1.03-116.49,2.06-174.73,3.09-70.59,1.25-141.18,2.49-211.78,3.74-61,1.08-122,2.15-182.99,3.23-20.04,.35-40.08,.71-60.12,1.06-6.29,.11-12.59,.22-18.88,.33-3.13,.06-6.57-.25-9.68,.17-.4,.06-.85,.01-1.26,.02-6.39,.11-5.94,36.8,.49,36.68,3.91-.07,7.83-.14,11.74-.21,.05,4.27,.46,8.54,1.19,11.88-5.38,.1-10.76,.19-16.14,.29-3.13,.06-6.57-.25-9.68,.17-.4,.06-.85,.01-1.26,.02-6.39,.11-5.94,36.8,.49,36.68,16.71-.3,33.43-.59,50.14-.89-.68,3.37-1,7.72-.95,12.07-2.45,.04-4.9,.09-7.35,.13-3.13,.06-6.57-.25-9.68,.17-.4,.06-.85,.01-1.26,.02-6.39,.11-5.94,36.8,.49,36.68,24.42-.43,48.84-.86,73.26-1.29,58.24-1.03,116.49-2.06,174.73-3.09,70.59-1.25,141.18-2.49,211.78-3.74,61-1.08,122-2.15,182.99-3.23,20.04-.35,40.08-.71,60.12-1.06,6.29-.11,12.59-.22,18.88-.33,3.13-.06,6.57,.25,9.68-.17,.4-.06,.85-.01,1.26-.02,3.18-.06,4.67-9.2,4.56-18.34,2.45-.04,4.9-.09,7.35-.13,3.13-.06,6.57,.25,9.68-.17,.4-.06,.85-.01,1.26-.02,6.39-.11,5.94-36.8-.49-36.68Z"></path>
      </g>
    </g>
  </g>
</svg>